<?xml version="1.0" encoding="utf-8"?>
<!-- Generator: Adobe Illustrator 23.0.2, SVG Export Plug-In . SVG Version: 6.00 Build 0)  -->
<svg version="1.1" id="Capa_1" xmlns="http://www.w3.org/2000/svg" xmlns:xlink="http://www.w3.org/1999/xlink" x="0px" y="0px"
	 viewBox="0 0 40.81 55.02" style="enable-background:new 0 0 40.81 55.02;" xml:space="preserve">
<style type="text/css">
	.st0{fill:#858686;}
</style>
<g>
	<path class="st0" d="M11.99,18.99v-5.85c0-4.64,3.78-8.42,8.42-8.42c4.64,0,8.42,3.78,8.42,8.42v5.85h4.72v-5.85
		C33.54,5.89,27.65,0,20.4,0C13.16,0,7.27,5.89,7.27,13.13v5.85H11.99z"/>
	<path class="st0" d="M35.83,23.91H4.98C2.23,23.91,0,26.14,0,28.89v21.15c0,2.75,2.23,4.98,4.98,4.98h30.85
		c2.75,0,4.98-2.23,4.98-4.98V28.89C40.81,26.14,38.58,23.91,35.83,23.91z M20.4,46.77c-2.87,0-5.19-2.33-5.19-5.19
		c0-1.7,0.82-3.19,2.08-4.13c-0.57-0.69-0.92-1.57-0.92-2.54c0-2.23,1.81-4.03,4.03-4.03c2.23,0,4.03,1.81,4.03,4.03
		c0,0.97-0.35,1.84-0.92,2.54c1.26,0.95,2.08,2.44,2.08,4.13C25.6,44.45,23.27,46.77,20.4,46.77z"/>
</g>
</svg>
