<?xml version="1.0" encoding="utf-8"?>
<!-- Generator: Adobe Illustrator 21.0.0, SVG Export Plug-In . SVG Version: 6.00 Build 0)  -->
<svg version="1.1" id="Layer_1" xmlns="http://www.w3.org/2000/svg" xmlns:xlink="http://www.w3.org/1999/xlink" x="0px" y="0px"
	 viewBox="0 0 333.5 140.8" style="enable-background:new 0 0 333.5 140.8;" xml:space="preserve">
<style type="text/css">
	.st0{fill:#EA662B;}
	.st1{fill:#203D90;}
	.st2{fill:#EC662C;}
	.st3{fill:#1D3D90;}
	.st4{fill:#FFFFFF;}
	.st5{fill:#3E3939;}
	.st6{fill:#FA380F;}
	.st7{fill:#101B75;}
	.st8{fill:#0D308D;}
	.st9{fill:#003097;}
	.st10{fill:#0046AB;}
	.st11{fill:#0B4DA0;}
	.st12{fill:#3F3F3F;}
</style>
<g>
	<path class="st2" d="M142.8,0L91.5,121.3H61c-5.8,0-11.1-3.5-13.4-8.9L0,0h36.6c4.5,0,8.5,2.7,10.2,6.9l26.1,64L102.6,0H142.8z"/>
	<path class="st3" d="M0,0h36.6c4.5,0,8.5,2.7,10.2,6.9l44.7,109.7c0.6,1.5,0.6,3.3,0,4.8v0H61c-5.8,0-11.1-3.5-13.4-8.9L0,0z"/>
	<path class="st2" d="M104.4,121.3L155.7,0h33.7c3.9,0,7.5,2.4,9,6l48.8,115.3h-33.6c-6.3,0-12-3.8-14.4-9.6l-25-61.2l-29.6,70.9
		H104.4z"/>
	<path class="st3" d="M333.5,89.6h-56.3l48.6-58.8c3-3.7,4.7-8.3,4.7-13.1V0H229.6v31.7h49.6l-46.3,56L198.5,6c-1.5-3.6-5.1-6-9-6
		h-33.7c-0.7,1.5-0.7,3.3,0,4.8l43.6,106.9c2.4,5.8,8.1,9.7,14.4,9.7H226v0h107.5V89.6z"/>
	<g>
		<path class="st2" d="M214.7,136c0.1,1.6,1.1,2.1,2.6,2.1c1.1,0,2.2-0.4,2.2-1.4c0-1.2-1.9-1.4-3.9-2c-1.9-0.6-4-1.4-4-3.9
			c0-3,3-4.1,5.5-4.1c2.7,0,5.4,1.3,5.4,4.4H219c0.1-1.2-1.1-1.6-2.2-1.6c-0.8,0-1.7,0.3-1.7,1.2c0,1,2,1.2,3.9,1.8
			c2,0.6,3.9,1.5,3.9,3.9c0,3.4-2.9,4.5-5.9,4.5c-3.1,0-5.9-1.4-5.9-4.8H214.7z"/>
		<path class="st2" d="M228.4,126.9h10.8v2.8h-7.3v2.4h6.6v2.7h-6.6v2.6h7.5v3h-11V126.9z"/>
		<path class="st2" d="M257.7,140.5h-2.3l-0.2-1.5c-0.9,1.3-2.5,1.8-3.8,1.8c-4.1,0-6.8-3.1-6.8-7.1c0-3.9,2.7-7.1,6.8-7.1
			c2.8,0,5.8,1.5,6.1,4.9H254c-0.1-1.2-1.3-1.9-2.7-1.9c-2.3,0-3.2,2-3.2,4c0,2,0.9,4,3.2,4c1.7,0,2.9-0.8,3.1-2.1H252v-2.6h5.7
			V140.5z"/>
		<path class="st2" d="M275.5,134.9c0,3.9-1.8,5.9-5.9,5.9s-5.9-2-5.9-5.9v-8h3.5v8.2c0,1.7,0.6,2.6,2.4,2.6c1.7,0,2.4-0.9,2.4-2.6
			v-8.2h3.5V134.9z"/>
		<path class="st2" d="M281.6,126.9h6.9c2.4,0,4.7,1.1,4.7,3.8c0,1.5-0.7,2.8-2.1,3.4v0c1.4,0.3,1.9,2,2,3.2c0,0.6,0.1,2.6,0.6,3.1
			h-3.5c-0.3-0.5-0.4-1.8-0.4-2.2c-0.1-1.4-0.3-2.8-2-2.8h-2.7v4.9h-3.5V126.9z M285.2,132.8h3c1.1,0,1.6-0.6,1.6-1.6
			c0-1-0.8-1.5-1.8-1.5h-2.8V132.8z"/>
		<path class="st2" d="M305.3,126.7c4.3,0,6.7,3.1,6.7,7.1c0,3.9-2.4,7.1-6.7,7.1s-6.7-3.1-6.7-7.1
			C298.6,129.8,301,126.7,305.3,126.7z M305.3,137.8c2.3,0,3.2-2,3.2-4c0-2-0.9-4-3.2-4c-2.3,0-3.2,2-3.2,4
			C302.2,135.7,303,137.8,305.3,137.8z"/>
		<path class="st2" d="M320.5,136c0.1,1.6,1.1,2.1,2.6,2.1c1.1,0,2.2-0.4,2.2-1.4c0-1.2-1.9-1.4-3.9-2c-1.9-0.6-4-1.4-4-3.9
			c0-3,3-4.1,5.5-4.1c2.7,0,5.4,1.3,5.4,4.4h-3.5c0.1-1.2-1.1-1.6-2.2-1.6c-0.8,0-1.7,0.3-1.7,1.2c0,1,2,1.2,3.9,1.8
			c2,0.6,3.9,1.5,3.9,3.9c0,3.4-2.9,4.5-5.9,4.5c-3.1,0-5.9-1.4-5.9-4.8H320.5z"/>
	</g>
</g>
</svg>
